<svg xmlns="http://www.w3.org/2000/svg" viewBox="0 0 900 340" width="900" height="340" role="img" aria-label="Cumulative realised profit vs cumulative withdrawn">
  <rect width="900" height="340" fill="#ffffff"/>
  <line x1="74" y1="306.0" x2="880" y2="306.0" stroke="#e6e8ee"/><text x="66" y="310.0" text-anchor="end" font-size="11" fill="#5b6270">0</text><line x1="74" y1="235.5" x2="880" y2="235.5" stroke="#e6e8ee"/><text x="66" y="239.5" text-anchor="end" font-size="11" fill="#5b6270">1029</text><line x1="74" y1="165.0" x2="880" y2="165.0" stroke="#e6e8ee"/><text x="66" y="169.0" text-anchor="end" font-size="11" fill="#5b6270">2058</text><line x1="74" y1="94.5" x2="880" y2="94.5" stroke="#e6e8ee"/><text x="66" y="98.5" text-anchor="end" font-size="11" fill="#5b6270">3088</text><line x1="74" y1="24.0" x2="880" y2="24.0" stroke="#e6e8ee"/><text x="66" y="28.0" text-anchor="end" font-size="11" fill="#5b6270">4117</text>
  <polyline points="74.0,306.0 74.6,306.0 75.2,306.0 75.7,306.0 76.3,306.0 76.9,306.0 77.5,306.0 78.0,306.0 78.6,306.0 79.2,306.0 79.8,306.0 80.3,306.0 80.9,306.0 81.5,306.0 82.1,306.0 82.7,305.9 83.2,306.1 83.8,306.0 84.4,306.0 85.0,306.0 85.5,306.0 86.1,306.0 86.7,306.0 87.3,306.0 87.8,306.0 88.4,306.0 89.0,305.9 89.6,306.0 90.2,306.0 90.7,306.1 91.3,306.1 91.9,306.1 92.5,306.0 93.0,306.0 93.6,306.0 94.2,306.0 94.8,306.0 95.3,306.0 95.9,306.0 96.5,306.0 97.1,306.0 97.7,306.0 98.2,306.0 98.8,305.9 99.4,305.9 100.0,305.9 100.5,305.9 101.1,305.9 101.7,305.9 102.3,305.9 102.8,305.8 103.4,305.8 104.0,305.7 104.6,305.7 105.2,305.7 105.7,305.6 106.3,305.6 106.9,305.6 107.5,305.6 108.0,305.6 108.6,305.6 109.2,305.6 109.8,305.6 110.3,305.6 110.9,305.6 111.5,305.6 112.1,305.6 112.7,305.5 113.2,305.4 113.8,305.4 114.4,305.4 115.0,305.4 115.5,305.3 116.1,305.3 116.7,305.3 117.3,305.3 117.8,305.3 118.4,305.3 119.0,305.3 119.6,305.3 120.2,305.7 120.7,305.6 121.3,305.5 121.9,305.6 122.5,305.6 123.0,305.6 123.6,305.5 124.2,305.5 124.8,305.5 125.3,305.5 125.9,305.5 126.5,305.4 127.1,305.4 127.7,305.4 128.2,305.4 128.8,305.4 129.4,305.4 130.0,305.4 130.5,305.3 131.1,305.3 131.7,305.3 132.3,305.3 132.8,305.3 133.4,305.2 134.0,305.2 134.6,305.2 135.2,305.1 135.7,305.1 136.3,305.1 136.9,305.1 137.5,305.0 138.0,305.1 138.6,305.1 139.2,305.0 139.8,305.0 140.3,304.9 140.9,305.2 141.5,305.1 142.1,305.1 142.7,305.1 143.2,304.9 143.8,304.9 144.4,304.9 145.0,304.9 145.5,304.9 146.1,304.8 146.7,304.8 147.3,304.9 147.8,304.9 148.4,304.9 149.0,304.8 149.6,304.8 150.2,304.8 150.7,304.8 151.3,304.7 151.9,305.0 152.5,304.8 153.0,304.6 153.6,304.8 154.2,304.8 154.8,304.7 155.4,304.6 155.9,304.4 156.5,304.3 157.1,304.2 157.7,304.2 158.2,304.1 158.8,304.1 159.4,304.0 160.0,304.5 160.5,304.4 161.1,304.4 161.7,304.4 162.3,304.6 162.9,304.6 163.4,304.4 164.0,304.4 164.6,304.3 165.2,303.9 165.7,303.8 166.3,303.7 166.9,303.7 167.5,303.8 168.0,303.6 168.6,303.7 169.2,303.5 169.8,303.5 170.4,303.5 170.9,303.5 171.5,303.5 172.1,303.5 172.7,303.4 173.2,303.4 173.8,303.5 174.4,303.4 175.0,303.5 175.5,303.6 176.1,303.6 176.7,303.6 177.3,303.5 177.9,303.5 178.4,303.5 179.0,303.4 179.6,303.4 180.2,303.0 180.7,303.8 181.3,303.8 181.9,303.8 182.5,303.7 183.0,303.5 183.6,303.4 184.2,303.4 184.8,303.4 185.4,303.8 185.9,303.7 186.5,303.8 187.1,303.7 187.7,304.0 188.2,304.2 188.8,303.9 189.4,303.8 190.0,304.9 190.5,304.9 191.1,304.9 191.7,304.8 192.3,304.8 192.9,304.7 193.4,304.7 194.0,304.8 194.6,304.8 195.2,304.8 195.7,304.8 196.3,304.8 196.9,304.8 197.5,304.8 198.0,304.8 198.6,304.8 199.2,304.8 199.8,304.8 200.4,304.7 200.9,304.7 201.5,304.6 202.1,304.6 202.7,304.6 203.2,304.3 203.8,304.3 204.4,304.3 205.0,304.3 205.5,304.2 206.1,304.2 206.7,304.2 207.3,304.2 207.9,304.2 208.4,304.2 209.0,304.2 209.6,304.2 210.2,304.2 210.7,304.2 211.3,304.2 211.9,304.2 212.5,304.2 213.0,304.2 213.6,304.2 214.2,304.2 214.8,304.2 215.4,304.1 215.9,304.1 216.5,304.0 217.1,304.0 217.7,303.9 218.2,304.2 218.8,304.2 219.4,304.3 220.0,304.3 220.5,304.3 221.1,303.6 221.7,303.4 222.3,303.4 222.9,303.4 223.4,303.5 224.0,303.4 224.6,302.9 225.2,302.8 225.7,302.0 226.3,302.0 226.9,300.6 227.5,300.6 228.0,299.6 228.6,299.6 229.2,299.3 229.8,298.6 230.4,298.5 230.9,298.8 231.5,298.4 232.1,297.9 232.7,297.8 233.2,297.4 233.8,296.6 234.4,295.9 235.0,295.9 235.5,295.7 236.1,295.9 236.7,296.0 237.3,296.3 237.9,295.9 238.4,295.4 239.0,295.1 239.6,294.9 240.2,296.9 240.7,296.1 241.3,295.9 241.9,295.5 242.5,295.1 243.0,295.2 243.6,295.0 244.2,294.1 244.8,293.8 245.4,293.6 245.9,293.2 246.5,293.2 247.1,293.2 247.7,293.1 248.2,292.9 248.8,292.8 249.4,292.8 250.0,292.8 250.5,292.8 251.1,292.8 251.7,292.7 252.3,292.7 252.9,293.2 253.4,293.3 254.0,293.0 254.6,291.4 255.2,291.4 255.7,291.0 256.3,290.5 256.9,290.2 257.5,290.0 258.0,290.1 258.6,290.1 259.2,290.1 259.8,289.6 260.4,289.4 260.9,289.4 261.5,289.4 262.1,289.4 262.7,289.4 263.2,289.2 263.8,288.9 264.4,288.6 265.0,288.4 265.5,288.5 266.1,288.4 266.7,288.2 267.3,288.3 267.9,288.3 268.4,288.3 269.0,288.3 269.6,288.3 270.2,288.2 270.7,288.1 271.3,288.2 271.9,288.1 272.5,288.1 273.0,287.9 273.6,287.9 274.2,287.9 274.8,287.9 275.4,288.3 275.9,288.2 276.5,288.4 277.1,288.3 277.7,288.2 278.2,288.1 278.8,288.0 279.4,288.0 280.0,287.2 280.5,287.2 281.1,287.1 281.7,287.1 282.3,287.0 282.9,286.9 283.4,286.9 284.0,286.9 284.6,286.9 285.2,286.3 285.7,286.2 286.3,286.1 286.9,286.1 287.5,286.1 288.0,286.2 288.6,285.6 289.2,285.6 289.8,285.6 290.4,285.7 290.9,285.6 291.5,285.6 292.1,285.6 292.7,285.6 293.2,285.6 293.8,285.6 294.4,285.6 295.0,285.6 295.5,285.5 296.1,285.5 296.7,285.3 297.3,285.3 297.9,285.2 298.4,285.0 299.0,284.9 299.6,284.9 300.2,284.9 300.7,290.0 301.3,288.7 301.9,287.9 302.5,287.7 303.0,287.4 303.6,286.6 304.2,286.7 304.8,286.5 305.4,286.4 305.9,286.1 306.5,285.7 307.1,285.5 307.7,285.4 308.2,285.7 308.8,285.6 309.4,285.4 310.0,285.2 310.5,285.2 311.1,285.3 311.7,285.0 312.3,284.7 312.9,283.7 313.4,283.0 314.0,282.6 314.6,283.0 315.2,282.7 315.7,282.7 316.3,282.8 316.9,282.7 317.5,283.2 318.1,283.3 318.6,283.8 319.2,283.7 319.8,282.9 320.4,281.5 320.9,281.9 321.5,281.1 322.1,281.4 322.7,281.6 323.2,280.8 323.8,281.0 324.4,280.0 325.0,281.7 325.6,280.5 326.1,280.2 326.7,279.9 327.3,279.8 327.9,279.3 328.4,279.2 329.0,278.8 329.6,278.7 330.2,278.3 330.7,278.5 331.3,278.5 331.9,278.5 332.5,278.4 333.1,278.4 333.6,278.4 334.2,278.7 334.8,278.6 335.4,278.7 335.9,279.3 336.5,279.3 337.1,278.4 337.7,278.4 338.2,278.4 338.8,278.4 339.4,278.4 340.0,278.4 340.6,278.0 341.1,278.0 341.7,278.1 342.3,278.1 342.9,278.2 343.4,278.2 344.0,277.6 344.6,277.3 345.2,277.3 345.7,277.1 346.3,277.0 346.9,277.7 347.5,277.9 348.1,277.9 348.6,277.7 349.2,277.6 349.8,276.9 350.4,276.2 350.9,276.7 351.5,276.1 352.1,276.1 352.7,276.1 353.2,276.7 353.8,276.8 354.4,276.8 355.0,276.1 355.6,276.1 356.1,276.1 356.7,276.0 357.3,276.1 357.9,276.1 358.4,276.5 359.0,276.2 359.6,276.2 360.2,276.2 360.7,274.5 361.3,275.3 361.9,272.8 362.5,272.6 363.1,272.9 363.6,272.9 364.2,272.8 364.8,272.3 365.4,272.3 365.9,272.3 366.5,272.2 367.1,271.6 367.7,272.7 368.2,272.7 368.8,272.8 369.4,272.8 370.0,272.8 370.6,273.5 371.1,273.5 371.7,273.3 372.3,273.3 372.9,273.2 373.4,273.1 374.0,272.6 374.6,271.9 375.2,272.3 375.7,272.2 376.3,272.2 376.9,272.2 377.5,272.2 378.1,272.1 378.6,271.8 379.2,271.7 379.8,271.7 380.4,271.7 380.9,272.3 381.5,272.1 382.1,271.5 382.7,271.5 383.2,271.2 383.8,270.9 384.4,270.9 385.0,270.0 385.6,270.0 386.1,270.4 386.7,270.1 387.3,270.2 387.9,270.2 388.4,270.5 389.0,270.5 389.6,270.5 390.2,270.3 390.7,270.2 391.3,269.9 391.9,269.2 392.5,269.4 393.1,269.9 393.6,269.9 394.2,269.9 394.8,270.0 395.4,270.0 395.9,270.0 396.5,270.0 397.1,270.0 397.7,270.0 398.2,270.0 398.8,270.1 399.4,270.1 400.0,270.1 400.6,270.1 401.1,270.1 401.7,270.0 402.3,269.7 402.9,269.7 403.4,268.1 404.0,268.1 404.6,268.5 405.2,268.3 405.7,268.6 406.3,268.6 406.9,268.6 407.5,268.6 408.1,268.6 408.6,268.6 409.2,268.1 409.8,267.9 410.4,267.9 410.9,268.6 411.5,268.6 412.1,268.6 412.7,268.6 413.2,268.4 413.8,268.2 414.4,268.4 415.0,268.4 415.6,268.1 416.1,268.1 416.7,268.1 417.3,268.1 417.9,268.1 418.4,268.1 419.0,266.3 419.6,266.2 420.2,269.3 420.7,269.1 421.3,268.5 421.9,268.3 422.5,268.7 423.1,268.9 423.6,268.9 424.2,268.9 424.8,268.9 425.4,268.9 425.9,268.9 426.5,268.9 427.1,268.9 427.7,268.6 428.2,268.0 428.8,268.0 429.4,268.0 430.0,267.9 430.6,267.8 431.1,267.9 431.7,267.9 432.3,267.7 432.9,267.7 433.4,267.8 434.0,267.7 434.6,267.4 435.2,267.3 435.7,265.0 436.3,265.1 436.9,264.9 437.5,262.9 438.1,263.0 438.6,263.1 439.2,262.8 439.8,261.9 440.4,262.5 440.9,261.5 441.5,261.4 442.1,261.1 442.7,261.0 443.2,260.9 443.8,261.0 444.4,261.2 445.0,261.2 445.6,261.2 446.1,261.1 446.7,258.9 447.3,258.8 447.9,258.8 448.4,258.8 449.0,258.8 449.6,258.7 450.2,258.9 450.7,257.9 451.3,258.1 451.9,257.8 452.5,257.7 453.1,257.7 453.6,257.7 454.2,257.8 454.8,257.5 455.4,257.5 455.9,257.5 456.5,257.4 457.1,257.4 457.7,257.4 458.2,257.7 458.8,257.7 459.4,257.7 460.0,256.9 460.6,256.3 461.1,255.8 461.7,255.5 462.3,256.4 462.9,256.2 463.4,253.9 464.0,253.6 464.6,252.7 465.2,252.7 465.7,252.7 466.3,252.7 466.9,252.6 467.5,252.6 468.1,252.3 468.6,252.1 469.2,250.6 469.8,250.4 470.4,249.2 470.9,249.2 471.5,247.5 472.1,247.5 472.7,247.8 473.2,247.8 473.8,247.8 474.4,248.5 475.0,247.2 475.6,247.2 476.1,247.3 476.7,247.0 477.3,246.9 477.9,246.8 478.4,246.6 479.0,246.1 479.6,246.2 480.2,246.2 480.8,246.2 481.3,247.0 481.9,246.4 482.5,246.3 483.1,245.6 483.6,245.5 484.2,245.7 484.8,245.7 485.4,245.0 485.9,244.9 486.5,246.1 487.1,246.1 487.7,246.1 488.3,246.1 488.8,246.1 489.4,246.1 490.0,246.5 490.6,246.3 491.1,246.3 491.7,247.2 492.3,246.9 492.9,244.7 493.4,244.4 494.0,244.3 494.6,244.3 495.2,244.3 495.8,246.4 496.3,246.4 496.9,246.5 497.5,246.5 498.1,244.8 498.6,244.6 499.2,243.9 499.8,245.4 500.4,226.5 500.9,228.7 501.5,229.3 502.1,230.7 502.7,229.2 503.3,228.6 503.8,230.4 504.4,235.8 505.0,235.7 505.6,233.9 506.1,230.7 506.7,230.4 507.3,230.3 507.9,230.3 508.4,231.0 509.0,228.7 509.6,228.5 510.2,224.3 510.8,224.2 511.3,223.7 511.9,223.8 512.5,231.3 513.1,231.4 513.6,231.4 514.2,233.5 514.8,233.5 515.4,233.4 515.9,233.6 516.5,232.4 517.1,231.4 517.7,231.4 518.3,229.9 518.8,229.5 519.4,229.5 520.0,230.4 520.6,229.9 521.1,229.9 521.7,229.9 522.3,229.9 522.9,229.1 523.4,228.8 524.0,228.9 524.6,228.9 525.2,228.9 525.8,229.1 526.3,228.9 526.9,228.9 527.5,228.0 528.1,227.6 528.6,226.0 529.2,226.0 529.8,225.3 530.4,225.5 530.9,224.9 531.5,224.4 532.1,225.4 532.7,225.4 533.3,225.4 533.8,222.0 534.4,222.0 535.0,223.8 535.6,223.8 536.1,225.6 536.7,225.0 537.3,225.0 537.9,225.0 538.4,225.0 539.0,225.7 539.6,225.7 540.2,225.0 540.8,222.8 541.3,222.8 541.9,222.9 542.5,221.7 543.1,221.4 543.6,221.6 544.2,221.6 544.8,222.7 545.4,222.7 545.9,222.7 546.5,222.7 547.1,222.7 547.7,225.9 548.3,225.9 548.8,225.9 549.4,225.3 550.0,225.4 550.6,225.8 551.1,225.8 551.7,225.8 552.3,226.6 552.9,226.7 553.4,226.7 554.0,226.7 554.6,224.1 555.2,223.6 555.8,223.6 556.3,223.6 556.9,223.7 557.5,223.7 558.1,223.7 558.6,223.7 559.2,223.8 559.8,222.5 560.4,221.5 560.9,220.8 561.5,220.3 562.1,219.6 562.7,219.6 563.3,219.5 563.8,219.5 564.4,220.3 565.0,219.5 565.6,219.5 566.1,219.5 566.7,220.1 567.3,220.2 567.9,220.2 568.4,219.9 569.0,220.8 569.6,220.8 570.2,220.8 570.8,220.8 571.3,220.8 571.9,220.8 572.5,220.8 573.1,220.8 573.6,220.8 574.2,220.8 574.8,220.8 575.4,220.8 575.9,220.7 576.5,220.7 577.1,220.0 577.7,219.7 578.3,219.7 578.8,219.7 579.4,219.4 580.0,218.9 580.6,218.5 581.1,218.5 581.7,216.6 582.3,213.9 582.9,213.6 583.4,213.2 584.0,212.6 584.6,211.0 585.2,210.4 585.8,209.4 586.3,209.4 586.9,209.4 587.5,209.5 588.1,210.2 588.6,209.4 589.2,209.4 589.8,209.4 590.4,209.4 590.9,209.4 591.5,209.7 592.1,208.7 592.7,207.8 593.3,207.2 593.8,207.2 594.4,207.6 595.0,207.3 595.6,206.8 596.1,205.3 596.7,206.3 597.3,208.0 597.9,208.0 598.4,208.0 599.0,208.0 599.6,208.0 600.2,204.2 600.8,201.7 601.3,198.2 601.9,194.0 602.5,192.2 603.1,192.1 603.6,191.8 604.2,194.6 604.8,196.1 605.4,196.1 605.9,196.1 606.5,196.2 607.1,196.2 607.7,196.8 608.3,196.8 608.8,201.1 609.4,202.5 610.0,202.5 610.6,202.5 611.1,202.5 611.7,200.5 612.3,200.8 612.9,199.2 613.4,201.4 614.0,201.1 614.6,201.0 615.2,201.0 615.8,201.0 616.3,201.0 616.9,201.0 617.5,200.3 618.1,200.3 618.6,200.3 619.2,200.3 619.8,200.2 620.4,200.1 620.9,199.6 621.5,199.6 622.1,199.6 622.7,199.6 623.3,199.7 623.8,199.7 624.4,199.1 625.0,199.6 625.6,199.9 626.1,199.9 626.7,199.9 627.3,199.9 627.9,199.9 628.4,209.9 629.0,208.5 629.6,209.6 630.2,209.6 630.8,209.6 631.3,209.6 631.9,209.6 632.5,207.5 633.1,204.0 633.6,204.6 634.2,203.1 634.8,203.1 635.4,202.6 635.9,200.4 636.5,201.3 637.1,199.6 637.7,201.8 638.3,200.8 638.8,201.9 639.4,205.8 640.0,206.5 640.6,206.6 641.1,206.6 641.7,206.6 642.3,206.6 642.9,206.6 643.5,206.6 644.0,206.6 644.6,208.3 645.2,208.3 645.8,208.8 646.3,208.9 646.9,209.4 647.5,209.6 648.1,209.3 648.6,208.1 649.2,207.4 649.8,202.7 650.4,202.6 651.0,201.4 651.5,200.7 652.1,204.9 652.7,202.0 653.3,202.0 653.8,202.0 654.4,201.9 655.0,202.0 655.6,202.9 656.1,202.9 656.7,202.9 657.3,202.9 657.9,203.0 658.5,203.1 659.0,199.2 659.6,199.0 660.2,199.0 660.8,199.0 661.3,202.9 661.9,201.8 662.5,201.7 663.1,201.7 663.6,202.8 664.2,200.7 664.8,200.3 665.4,197.2 666.0,197.2 666.5,197.2 667.1,197.1 667.7,206.0 668.3,206.1 668.8,204.8 669.4,205.4 670.0,205.4 670.6,207.5 671.1,207.4 671.7,206.4 672.3,203.6 672.9,204.5 673.5,203.9 674.0,205.2 674.6,205.1 675.2,205.1 675.8,201.0 676.3,199.3 676.9,197.9 677.5,196.5 678.1,195.7 678.6,195.7 679.2,195.9 679.8,195.9 680.4,195.6 681.0,195.2 681.5,194.4 682.1,187.8 682.7,191.1 683.3,191.1 683.8,191.1 684.4,189.5 685.0,188.5 685.6,185.8 686.1,182.5 686.7,183.8 687.3,183.8 687.9,182.3 688.5,181.8 689.0,181.7 689.6,184.3 690.2,186.8 690.8,186.6 691.3,188.8 691.9,187.8 692.5,193.4 693.1,193.6 693.6,193.1 694.2,193.1 694.8,193.7 695.4,195.1 696.0,195.1 696.5,196.9 697.1,197.0 697.7,196.7 698.3,196.7 698.8,195.7 699.4,195.7 700.0,194.7 700.6,189.8 701.1,189.8 701.7,189.0 702.3,185.7 702.9,185.7 703.5,185.8 704.0,185.9 704.6,185.2 705.2,185.2 705.8,183.0 706.3,183.0 706.9,182.6 707.5,182.6 708.1,182.5 708.6,182.5 709.2,183.1 709.8,183.7 710.4,183.6 711.0,188.7 711.5,188.7 712.1,188.6 712.7,186.9 713.3,186.9 713.8,186.9 714.4,186.8 715.0,187.1 715.6,187.8 716.1,187.8 716.7,187.0 717.3,187.0 717.9,184.3 718.5,182.9 719.0,182.9 719.6,182.9 720.2,182.8 720.8,183.1 721.3,182.9 721.9,182.8 722.5,182.6 723.1,182.4 723.6,183.4 724.2,183.4 724.8,183.3 725.4,183.1 726.0,183.1 726.5,183.1 727.1,185.2 727.7,185.2 728.3,185.2 728.8,185.2 729.4,185.2 730.0,185.2 730.6,185.2 731.1,185.2 731.7,178.9 732.3,178.9 732.9,176.9 733.5,176.6 734.0,176.4 734.6,175.6 735.2,174.7 735.8,174.5 736.3,171.7 736.9,174.8 737.5,174.8 738.1,174.8 738.6,175.0 739.2,174.9 739.8,174.8 740.4,174.7 741.0,174.9 741.5,172.7 742.1,180.2 742.7,180.6 743.3,181.6 743.8,181.5 744.4,181.5 745.0,187.6 745.6,189.1 746.1,191.6 746.7,188.7 747.3,189.1 747.9,189.0 748.5,184.1 749.0,180.9 749.6,180.0 750.2,199.3 750.8,198.1 751.3,189.6 751.9,190.4 752.5,183.1 753.1,180.1 753.6,177.3 754.2,175.6 754.8,172.2 755.4,170.3 756.0,169.4 756.5,169.3 757.1,164.8 757.7,163.9 758.3,160.8 758.8,159.3 759.4,155.1 760.0,153.2 760.6,153.1 761.1,141.4 761.7,132.0 762.3,138.3 762.9,137.9 763.5,136.7 764.0,136.4 764.6,131.7 765.2,130.3 765.8,130.0 766.3,129.4 766.9,119.3 767.5,118.9 768.1,122.8 768.6,119.5 769.2,116.8 769.8,120.8 770.4,122.8 771.0,113.2 771.5,119.8 772.1,119.8 772.7,122.8 773.3,122.8 773.8,125.2 774.4,127.0 775.0,129.5 775.6,129.5 776.1,129.4 776.7,129.3 777.3,129.4 777.9,129.4 778.5,125.3 779.0,122.8 779.6,122.9 780.2,122.9 780.8,122.9 781.3,124.2 781.9,123.8 782.5,123.9 783.1,122.9 783.6,122.9 784.2,122.5 784.8,122.5 785.4,122.5 786.0,122.5 786.5,121.7 787.1,120.9 787.7,120.9 788.3,120.8 788.8,117.9 789.4,116.6 790.0,115.9 790.6,116.0 791.1,114.8 791.7,115.1 792.3,115.0 792.9,115.0 793.5,115.8 794.0,115.9 794.6,115.3 795.2,112.0 795.8,110.8 796.3,109.2 796.9,104.7 797.5,100.2 798.1,95.3 798.6,95.1 799.2,92.4 799.8,88.9 800.4,88.7 801.0,88.7 801.5,88.5 802.1,84.1 802.7,82.0 803.3,80.2 803.8,78.7 804.4,78.5 805.0,78.4 805.6,77.7 806.2,77.0 806.7,72.8 807.3,72.8 807.9,72.6 808.5,72.4 809.0,71.9 809.6,72.2 810.2,72.2 810.8,72.2 811.3,71.1 811.9,70.7 812.5,70.8 813.1,60.6 813.7,56.7 814.2,60.2 814.8,60.3 815.4,61.0 816.0,62.1 816.5,62.2 817.1,62.3 817.7,62.3 818.3,60.2 818.8,59.4 819.4,59.0 820.0,57.5 820.6,57.4 821.2,52.7 821.7,44.7 822.3,39.9 822.9,39.2 823.5,36.0 824.0,34.3 824.6,27.7 825.2,24.9 825.8,24.9 826.3,24.9 826.9,24.8 827.5,24.7 828.1,24.6 828.7,24.6 829.2,24.6 829.8,24.5 830.4,24.5 831.0,24.4 831.5,24.4 832.1,24.3 832.7,24.2 833.3,24.1 833.8,24.0 834.4,31.2 835.0,31.1 835.6,30.8 836.2,30.6 836.7,30.3 837.3,30.1 837.9,29.9 838.5,29.7 839.0,34.3 839.6,39.5 840.2,42.3 840.8,42.1 841.3,41.9 841.9,41.7 842.5,41.5 843.1,41.4 843.7,41.3 844.2,40.2 844.8,39.6 845.4,39.5 846.0,39.3 846.5,39.0 847.1,38.9 847.7,40.4 848.3,40.3 848.8,40.2 849.4,40.0 850.0,39.8 850.6,40.7 851.2,40.5 851.7,40.4 852.3,40.3 852.9,40.2 853.5,40.2 854.0,45.4 854.6,50.0 855.2,49.9 855.8,52.8 856.3,52.8 856.9,52.8 857.5,52.8 858.1,52.8 858.7,52.9 859.2,52.9 859.8,53.0 860.4,52.2 861.0,51.8 861.5,53.0 862.1,53.1 862.7,53.1 863.3,53.1 863.8,53.2 864.4,58.8 865.0,58.8 865.6,58.7 866.2,64.5 866.7,64.5 867.3,64.5 867.9,64.5 868.5,64.5 869.0,64.5 869.6,64.5 870.2,64.5 870.8,64.5 871.3,64.5 871.9,64.5 872.5,64.5 873.1,64.5 873.7,64.5 874.2,64.5 874.8,64.5 875.4,64.2 876.0,63.7 876.5,63.7 877.1,63.7 877.7,63.7 878.3,63.7 878.8,63.7 879.4,63.7 880.0,63.7" fill="none" stroke="#2f6fed" stroke-width="2"/>
  <polyline points="74.0,306.0 74.6,306.0 75.2,306.0 75.7,306.0 76.3,306.0 76.9,306.0 77.5,306.0 78.0,306.0 78.6,306.0 79.2,306.0 79.8,306.0 80.3,306.0 80.9,306.0 81.5,306.0 82.1,306.0 82.7,306.0 83.2,306.0 83.8,305.9 84.4,305.9 85.0,305.9 85.5,305.9 86.1,305.9 86.7,305.9 87.3,305.9 87.8,305.9 88.4,305.9 89.0,305.8 89.6,305.8 90.2,305.8 90.7,305.8 91.3,305.8 91.9,305.8 92.5,305.8 93.0,305.8 93.6,305.8 94.2,305.8 94.8,305.8 95.3,305.8 95.9,305.8 96.5,305.8 97.1,305.8 97.7,305.8 98.2,305.8 98.8,305.8 99.4,305.8 100.0,305.8 100.5,305.8 101.1,305.8 101.7,305.8 102.3,305.8 102.8,305.7 103.4,305.7 104.0,305.7 104.6,305.6 105.2,305.6 105.7,305.6 106.3,305.6 106.9,305.6 107.5,305.6 108.0,305.6 108.6,305.6 109.2,305.6 109.8,305.6 110.3,305.6 110.9,305.6 111.5,305.6 112.1,305.6 112.7,305.6 113.2,305.5 113.8,305.5 114.4,305.5 115.0,305.5 115.5,305.5 116.1,305.5 116.7,305.5 117.3,305.5 117.8,305.5 118.4,305.5 119.0,305.5 119.6,305.5 120.2,305.5 120.7,305.5 121.3,305.5 121.9,305.5 122.5,305.5 123.0,305.5 123.6,305.5 124.2,305.5 124.8,305.5 125.3,305.5 125.9,305.5 126.5,305.5 127.1,305.5 127.7,305.5 128.2,305.5 128.8,305.5 129.4,305.5 130.0,305.5 130.5,305.5 131.1,305.5 131.7,305.5 132.3,305.5 132.8,305.5 133.4,305.5 134.0,305.5 134.6,305.5 135.2,305.5 135.7,305.5 136.3,305.5 136.9,305.5 137.5,305.5 138.0,305.5 138.6,305.5 139.2,305.5 139.8,305.5 140.3,305.5 140.9,305.5 141.5,305.5 142.1,305.5 142.7,305.5 143.2,305.5 143.8,305.5 144.4,305.5 145.0,305.5 145.5,305.5 146.1,305.5 146.7,305.5 147.3,305.5 147.8,305.5 148.4,305.5 149.0,305.5 149.6,305.5 150.2,305.5 150.7,305.5 151.3,305.5 151.9,305.5 152.5,305.5 153.0,305.5 153.6,305.5 154.2,305.5 154.8,305.5 155.4,305.5 155.9,305.5 156.5,305.5 157.1,305.5 157.7,305.2 158.2,305.2 158.8,305.2 159.4,305.2 160.0,305.2 160.5,305.2 161.1,305.2 161.7,305.2 162.3,305.2 162.9,305.2 163.4,305.2 164.0,305.2 164.6,305.2 165.2,305.0 165.7,305.0 166.3,305.0 166.9,305.0 167.5,305.0 168.0,305.0 168.6,305.0 169.2,305.0 169.8,305.0 170.4,305.0 170.9,305.0 171.5,305.0 172.1,305.0 172.7,305.0 173.2,305.0 173.8,305.0 174.4,305.0 175.0,305.0 175.5,305.0 176.1,305.0 176.7,305.0 177.3,305.0 177.9,305.0 178.4,305.0 179.0,305.0 179.6,305.0 180.2,304.5 180.7,304.5 181.3,304.5 181.9,304.5 182.5,304.5 183.0,304.5 183.6,304.5 184.2,304.5 184.8,304.5 185.4,304.5 185.9,304.5 186.5,304.5 187.1,304.5 187.7,304.5 188.2,304.5 188.8,304.5 189.4,304.5 190.0,304.5 190.5,304.5 191.1,304.5 191.7,304.5 192.3,304.5 192.9,304.5 193.4,304.5 194.0,304.5 194.6,304.5 195.2,304.5 195.7,304.5 196.3,304.5 196.9,304.5 197.5,304.5 198.0,304.5 198.6,304.5 199.2,304.5 199.8,304.5 200.4,304.5 200.9,304.5 201.5,304.5 202.1,304.5 202.7,304.5 203.2,304.5 203.8,304.5 204.4,304.5 205.0,304.5 205.5,304.5 206.1,304.5 206.7,304.5 207.3,304.5 207.9,304.5 208.4,304.5 209.0,304.5 209.6,304.5 210.2,304.5 210.7,304.5 211.3,304.5 211.9,304.5 212.5,304.5 213.0,304.5 213.6,304.5 214.2,304.5 214.8,304.5 215.4,304.5 215.9,304.5 216.5,304.5 217.1,304.5 217.7,304.5 218.2,304.5 218.8,304.5 219.4,304.5 220.0,304.5 220.5,304.5 221.1,304.5 221.7,304.5 222.3,304.5 222.9,304.5 223.4,304.5 224.0,304.5 224.6,304.5 225.2,304.5 225.7,304.5 226.3,304.5 226.9,304.4 227.5,304.4 228.0,304.4 228.6,303.7 229.2,303.1 229.8,303.1 230.4,303.1 230.9,303.1 231.5,303.1 232.1,303.1 232.7,303.1 233.2,303.1 233.8,302.4 234.4,302.4 235.0,302.4 235.5,302.4 236.1,302.4 236.7,302.4 237.3,302.4 237.9,302.4 238.4,302.4 239.0,302.4 239.6,302.4 240.2,302.4 240.7,302.4 241.3,302.4 241.9,302.4 242.5,302.4 243.0,301.7 243.6,301.7 244.2,301.7 244.8,301.7 245.4,301.7 245.9,301.7 246.5,300.3 247.1,300.3 247.7,300.3 248.2,300.3 248.8,300.3 249.4,300.3 250.0,300.3 250.5,300.3 251.1,300.3 251.7,300.3 252.3,300.3 252.9,300.3 253.4,300.3 254.0,299.6 254.6,299.6 255.2,299.6 255.7,299.6 256.3,298.9 256.9,298.9 257.5,298.9 258.0,298.9 258.6,298.9 259.2,298.9 259.8,298.9 260.4,298.9 260.9,298.9 261.5,298.9 262.1,298.9 262.7,298.9 263.2,298.9 263.8,298.9 264.4,298.9 265.0,298.9 265.5,298.9 266.1,298.9 266.7,298.9 267.3,298.9 267.9,298.9 268.4,298.9 269.0,298.9 269.6,298.9 270.2,298.9 270.7,297.6 271.3,297.6 271.9,297.6 272.5,297.6 273.0,297.6 273.6,297.6 274.2,297.6 274.8,297.6 275.4,297.6 275.9,297.6 276.5,297.6 277.1,297.6 277.7,297.6 278.2,297.6 278.8,297.6 279.4,297.6 280.0,297.6 280.5,297.6 281.1,297.6 281.7,297.6 282.3,297.6 282.9,297.6 283.4,297.6 284.0,297.6 284.6,297.6 285.2,297.6 285.7,297.6 286.3,297.0 286.9,297.0 287.5,297.0 288.0,297.0 288.6,297.0 289.2,297.0 289.8,297.0 290.4,297.0 290.9,297.0 291.5,297.0 292.1,297.0 292.7,297.0 293.2,297.0 293.8,297.0 294.4,297.0 295.0,297.0 295.5,297.0 296.1,297.0 296.7,297.0 297.3,297.0 297.9,297.0 298.4,297.0 299.0,297.0 299.6,297.0 300.2,297.0 300.7,297.0 301.3,297.0 301.9,297.0 302.5,297.0 303.0,297.0 303.6,297.0 304.2,297.0 304.8,297.0 305.4,295.7 305.9,295.7 306.5,295.7 307.1,295.7 307.7,295.7 308.2,295.7 308.8,295.7 309.4,295.7 310.0,295.0 310.5,295.0 311.1,295.0 311.7,295.0 312.3,295.0 312.9,293.6 313.4,293.6 314.0,293.6 314.6,293.6 315.2,293.6 315.7,293.6 316.3,293.6 316.9,293.6 317.5,293.6 318.1,293.6 318.6,293.6 319.2,293.6 319.8,293.6 320.4,292.2 320.9,292.2 321.5,292.2 322.1,292.2 322.7,292.2 323.2,292.2 323.8,290.9 324.4,290.9 325.0,290.9 325.6,290.9 326.1,290.9 326.7,290.9 327.3,290.9 327.9,290.9 328.4,290.9 329.0,290.9 329.6,290.9 330.2,290.9 330.7,290.9 331.3,290.9 331.9,290.9 332.5,289.5 333.1,289.5 333.6,289.5 334.2,289.5 334.8,289.5 335.4,289.5 335.9,289.5 336.5,289.5 337.1,289.5 337.7,289.5 338.2,289.5 338.8,289.5 339.4,289.5 340.0,289.5 340.6,289.5 341.1,289.5 341.7,289.5 342.3,289.5 342.9,289.5 343.4,289.5 344.0,288.1 344.6,288.1 345.2,288.1 345.7,288.1 346.3,288.1 346.9,288.1 347.5,288.1 348.1,288.1 348.6,288.1 349.2,288.1 349.8,286.7 350.4,286.7 350.9,286.7 351.5,286.7 352.1,286.7 352.7,286.7 353.2,286.7 353.8,286.7 354.4,286.7 355.0,286.7 355.6,286.7 356.1,286.7 356.7,286.7 357.3,286.7 357.9,286.7 358.4,286.7 359.0,286.7 359.6,286.7 360.2,286.7 360.7,286.7 361.3,286.7 361.9,286.7 362.5,285.4 363.1,284.0 363.6,284.0 364.2,284.0 364.8,284.0 365.4,284.0 365.9,284.0 366.5,284.0 367.1,284.0 367.7,284.0 368.2,284.0 368.8,284.0 369.4,284.0 370.0,284.0 370.6,284.0 371.1,284.0 371.7,284.0 372.3,284.0 372.9,284.0 373.4,284.0 374.0,284.0 374.6,284.0 375.2,284.0 375.7,284.0 376.3,284.0 376.9,284.0 377.5,284.0 378.1,284.0 378.6,284.0 379.2,284.0 379.8,284.0 380.4,284.0 380.9,284.0 381.5,284.0 382.1,284.0 382.7,284.0 383.2,284.0 383.8,284.0 384.4,284.0 385.0,284.0 385.6,284.0 386.1,284.0 386.7,284.0 387.3,284.0 387.9,284.0 388.4,284.0 389.0,284.0 389.6,284.0 390.2,284.0 390.7,284.0 391.3,282.6 391.9,282.6 392.5,282.6 393.1,282.6 393.6,282.6 394.2,282.6 394.8,282.6 395.4,282.6 395.9,282.6 396.5,282.6 397.1,282.6 397.7,282.6 398.2,282.6 398.8,282.6 399.4,282.6 400.0,282.6 400.6,282.6 401.1,282.6 401.7,282.6 402.3,282.6 402.9,282.6 403.4,282.6 404.0,282.6 404.6,282.6 405.2,282.6 405.7,282.6 406.3,282.6 406.9,282.6 407.5,282.6 408.1,282.6 408.6,282.6 409.2,282.6 409.8,282.6 410.4,282.6 410.9,282.6 411.5,282.6 412.1,282.6 412.7,282.6 413.2,282.6 413.8,282.6 414.4,282.6 415.0,282.6 415.6,282.6 416.1,282.6 416.7,282.6 417.3,282.6 417.9,282.6 418.4,282.6 419.0,282.6 419.6,282.6 420.2,282.6 420.7,282.6 421.3,282.6 421.9,282.6 422.5,282.6 423.1,282.6 423.6,282.6 424.2,282.6 424.8,282.6 425.4,282.6 425.9,282.6 426.5,282.6 427.1,282.6 427.7,282.6 428.2,282.6 428.8,282.6 429.4,282.6 430.0,282.6 430.6,282.6 431.1,282.6 431.7,282.6 432.3,282.6 432.9,282.6 433.4,282.6 434.0,282.6 434.6,282.6 435.2,282.6 435.7,282.6 436.3,282.6 436.9,282.6 437.5,282.6 438.1,282.6 438.6,282.6 439.2,282.6 439.8,282.6 440.4,282.6 440.9,282.6 441.5,282.6 442.1,282.6 442.7,282.6 443.2,282.6 443.8,282.6 444.4,282.6 445.0,282.6 445.6,282.6 446.1,282.6 446.7,282.6 447.3,282.6 447.9,282.6 448.4,282.6 449.0,282.6 449.6,282.6 450.2,282.6 450.7,282.6 451.3,282.6 451.9,282.6 452.5,282.6 453.1,282.6 453.6,282.6 454.2,282.6 454.8,282.6 455.4,282.6 455.9,282.6 456.5,282.6 457.1,282.6 457.7,282.6 458.2,282.6 458.8,282.6 459.4,282.6 460.0,282.6 460.6,282.6 461.1,282.6 461.7,282.6 462.3,282.6 462.9,281.2 463.4,281.2 464.0,281.2 464.6,279.1 465.2,279.1 465.7,279.1 466.3,279.1 466.9,279.1 467.5,279.1 468.1,275.7 468.6,275.7 469.2,275.7 469.8,275.7 470.4,275.7 470.9,275.7 471.5,275.7 472.1,275.7 472.7,275.7 473.2,275.7 473.8,275.7 474.4,275.7 475.0,275.7 475.6,275.7 476.1,275.7 476.7,275.7 477.3,275.7 477.9,275.7 478.4,275.7 479.0,275.7 479.6,275.7 480.2,275.7 480.8,275.7 481.3,275.7 481.9,275.7 482.5,275.7 483.1,275.7 483.6,275.7 484.2,275.7 484.8,272.3 485.4,272.3 485.9,272.3 486.5,272.3 487.1,272.3 487.7,272.3 488.3,272.3 488.8,272.3 489.4,272.3 490.0,272.3 490.6,272.3 491.1,272.3 491.7,272.3 492.3,272.3 492.9,272.3 493.4,272.3 494.0,272.3 494.6,272.3 495.2,272.3 495.8,272.3 496.3,272.3 496.9,272.3 497.5,272.3 498.1,272.3 498.6,272.3 499.2,272.3 499.8,272.3 500.4,268.9 500.9,268.9 501.5,268.9 502.1,268.9 502.7,268.9 503.3,268.9 503.8,268.9 504.4,268.9 505.0,268.9 505.6,268.9 506.1,268.9 506.7,265.4 507.3,265.4 507.9,265.4 508.4,265.4 509.0,265.4 509.6,265.4 510.2,265.4 510.8,265.4 511.3,265.4 511.9,265.4 512.5,265.4 513.1,265.4 513.6,265.4 514.2,265.4 514.8,265.4 515.4,265.4 515.9,265.4 516.5,265.4 517.1,265.4 517.7,265.4 518.3,265.4 518.8,265.4 519.4,265.4 520.0,265.4 520.6,265.4 521.1,265.4 521.7,265.4 522.3,265.4 522.9,265.4 523.4,265.4 524.0,265.4 524.6,265.4 525.2,265.4 525.8,265.4 526.3,265.4 526.9,265.4 527.5,265.4 528.1,265.4 528.6,265.4 529.2,262.0 529.8,262.0 530.4,262.0 530.9,262.0 531.5,262.0 532.1,262.0 532.7,262.0 533.3,262.0 533.8,262.0 534.4,258.6 535.0,258.6 535.6,258.6 536.1,258.6 536.7,258.6 537.3,258.6 537.9,258.6 538.4,258.6 539.0,258.6 539.6,258.6 540.2,258.6 540.8,258.6 541.3,258.6 541.9,258.6 542.5,258.6 543.1,258.6 543.6,258.6 544.2,258.6 544.8,258.6 545.4,258.6 545.9,258.6 546.5,258.6 547.1,258.6 547.7,258.6 548.3,258.6 548.8,258.6 549.4,258.6 550.0,258.6 550.6,258.6 551.1,258.6 551.7,258.6 552.3,258.6 552.9,258.6 553.4,258.6 554.0,258.6 554.6,258.6 555.2,258.6 555.8,258.6 556.3,258.6 556.9,258.6 557.5,258.6 558.1,258.6 558.6,258.6 559.2,258.6 559.8,258.6 560.4,258.6 560.9,258.6 561.5,258.6 562.1,258.6 562.7,258.6 563.3,258.6 563.8,258.6 564.4,258.6 565.0,258.6 565.6,258.6 566.1,258.6 566.7,258.6 567.3,258.6 567.9,258.6 568.4,258.6 569.0,258.6 569.6,258.6 570.2,258.6 570.8,258.6 571.3,258.6 571.9,258.6 572.5,258.6 573.1,258.6 573.6,258.6 574.2,258.6 574.8,258.6 575.4,258.6 575.9,258.6 576.5,258.6 577.1,258.6 577.7,258.6 578.3,258.6 578.8,258.6 579.4,258.6 580.0,258.6 580.6,258.6 581.1,258.6 581.7,258.6 582.3,253.6 582.9,253.6 583.4,253.6 584.0,253.6 584.6,253.6 585.2,253.6 585.8,253.6 586.3,253.6 586.9,253.6 587.5,253.6 588.1,253.6 588.6,253.6 589.2,253.6 589.8,253.6 590.4,253.6 590.9,253.6 591.5,253.6 592.1,250.2 592.7,250.2 593.3,250.2 593.8,250.2 594.4,250.2 595.0,246.8 595.6,246.8 596.1,246.8 596.7,246.8 597.3,246.8 597.9,246.8 598.4,246.8 599.0,246.8 599.6,246.8 600.2,246.8 600.8,246.8 601.3,246.8 601.9,246.8 602.5,246.8 603.1,246.8 603.6,246.8 604.2,246.8 604.8,246.8 605.4,246.8 605.9,246.8 606.5,246.8 607.1,246.8 607.7,246.8 608.3,246.8 608.8,246.8 609.4,246.8 610.0,246.8 610.6,246.8 611.1,246.8 611.7,246.8 612.3,246.8 612.9,246.8 613.4,246.8 614.0,246.8 614.6,246.8 615.2,246.8 615.8,246.8 616.3,246.8 616.9,246.8 617.5,243.4 618.1,243.4 618.6,243.4 619.2,243.4 619.8,243.4 620.4,243.4 620.9,243.4 621.5,243.4 622.1,243.4 622.7,243.4 623.3,243.4 623.8,243.4 624.4,243.4 625.0,243.4 625.6,243.4 626.1,243.4 626.7,243.4 627.3,243.4 627.9,243.4 628.4,243.4 629.0,243.4 629.6,243.4 630.2,243.4 630.8,243.4 631.3,243.4 631.9,243.4 632.5,243.4 633.1,243.4 633.6,243.4 634.2,243.4 634.8,243.4 635.4,243.4 635.9,243.4 636.5,243.4 637.1,243.4 637.7,243.4 638.3,243.4 638.8,243.4 639.4,243.4 640.0,243.4 640.6,243.4 641.1,243.4 641.7,243.4 642.3,243.4 642.9,243.4 643.5,243.4 644.0,243.4 644.6,243.4 645.2,243.4 645.8,243.4 646.3,243.4 646.9,243.4 647.5,243.4 648.1,243.4 648.6,243.4 649.2,243.4 649.8,243.4 650.4,243.4 651.0,243.4 651.5,243.4 652.1,243.4 652.7,243.4 653.3,243.4 653.8,243.4 654.4,243.4 655.0,243.4 655.6,243.4 656.1,243.4 656.7,243.4 657.3,243.4 657.9,243.4 658.5,243.4 659.0,243.4 659.6,243.4 660.2,243.4 660.8,243.4 661.3,243.4 661.9,243.4 662.5,243.4 663.1,239.9 663.6,239.9 664.2,239.9 664.8,239.9 665.4,239.9 666.0,239.9 666.5,239.9 667.1,239.9 667.7,239.9 668.3,239.9 668.8,239.9 669.4,239.9 670.0,239.9 670.6,239.9 671.1,239.9 671.7,239.9 672.3,239.9 672.9,239.9 673.5,239.9 674.0,239.9 674.6,239.9 675.2,239.9 675.8,239.9 676.3,239.9 676.9,239.9 677.5,239.9 678.1,239.9 678.6,239.9 679.2,239.9 679.8,239.9 680.4,239.9 681.0,239.9 681.5,239.9 682.1,239.9 682.7,239.9 683.3,239.9 683.8,239.9 684.4,239.9 685.0,239.9 685.6,239.9 686.1,233.1 686.7,233.1 687.3,233.1 687.9,233.1 688.5,233.1 689.0,233.1 689.6,233.1 690.2,233.1 690.8,233.1 691.3,233.1 691.9,233.1 692.5,233.1 693.1,233.1 693.6,233.1 694.2,233.1 694.8,233.1 695.4,233.1 696.0,233.1 696.5,233.1 697.1,233.1 697.7,233.1 698.3,233.1 698.8,233.1 699.4,233.1 700.0,233.1 700.6,233.1 701.1,233.1 701.7,233.1 702.3,233.1 702.9,233.1 703.5,233.1 704.0,233.1 704.6,233.1 705.2,233.1 705.8,233.1 706.3,233.1 706.9,233.1 707.5,233.1 708.1,229.7 708.6,229.7 709.2,229.7 709.8,229.7 710.4,229.7 711.0,229.7 711.5,229.7 712.1,229.7 712.7,229.7 713.3,229.7 713.8,229.7 714.4,229.7 715.0,229.7 715.6,229.7 716.1,229.7 716.7,229.7 717.3,229.7 717.9,229.7 718.5,229.7 719.0,229.7 719.6,229.7 720.2,229.7 720.8,229.7 721.3,229.7 721.9,229.7 722.5,229.7 723.1,229.7 723.6,229.7 724.2,222.8 724.8,222.8 725.4,222.8 726.0,222.8 726.5,222.8 727.1,222.8 727.7,222.8 728.3,222.8 728.8,222.8 729.4,222.8 730.0,222.8 730.6,222.8 731.1,222.8 731.7,222.8 732.3,222.8 732.9,222.8 733.5,222.8 734.0,222.8 734.6,222.8 735.2,222.8 735.8,222.8 736.3,222.8 736.9,222.8 737.5,222.8 738.1,222.8 738.6,222.8 739.2,222.8 739.8,222.8 740.4,222.8 741.0,222.8 741.5,222.8 742.1,222.8 742.7,222.8 743.3,222.8 743.8,222.8 744.4,222.8 745.0,222.8 745.6,222.8 746.1,222.8 746.7,222.8 747.3,222.8 747.9,222.8 748.5,222.8 749.0,222.8 749.6,222.8 750.2,222.8 750.8,222.8 751.3,222.8 751.9,222.8 752.5,222.8 753.1,222.8 753.6,222.8 754.2,222.8 754.8,222.8 755.4,222.8 756.0,222.8 756.5,222.8 757.1,222.8 757.7,222.8 758.3,222.8 758.8,222.8 759.4,222.8 760.0,222.8 760.6,222.8 761.1,222.8 761.7,222.8 762.3,222.8 762.9,222.8 763.5,222.8 764.0,222.8 764.6,222.8 765.2,222.8 765.8,222.8 766.3,222.8 766.9,222.8 767.5,222.8 768.1,202.3 768.6,202.3 769.2,202.3 769.8,202.3 770.4,202.3 771.0,202.3 771.5,202.3 772.1,202.3 772.7,202.3 773.3,202.3 773.8,202.3 774.4,202.3 775.0,202.3 775.6,202.3 776.1,202.3 776.7,202.3 777.3,202.3 777.9,202.3 778.5,202.3 779.0,202.3 779.6,202.3 780.2,202.3 780.8,202.3 781.3,202.3 781.9,202.3 782.5,202.3 783.1,202.3 783.6,202.3 784.2,202.3 784.8,202.3 785.4,202.3 786.0,202.3 786.5,202.3 787.1,202.3 787.7,202.3 788.3,202.3 788.8,202.3 789.4,181.7 790.0,181.7 790.6,181.7 791.1,181.7 791.7,181.7 792.3,181.7 792.9,181.7 793.5,181.7 794.0,181.7 794.6,181.7 795.2,181.7 795.8,181.7 796.3,181.7 796.9,181.7 797.5,181.7 798.1,181.7 798.6,181.7 799.2,181.7 799.8,181.7 800.4,181.7 801.0,181.7 801.5,181.7 802.1,181.7 802.7,154.3 803.3,154.3 803.8,154.3 804.4,154.3 805.0,154.3 805.6,154.3 806.2,154.3 806.7,154.3 807.3,154.3 807.9,154.3 808.5,154.3 809.0,154.3 809.6,154.3 810.2,154.3 810.8,154.3 811.3,133.8 811.9,133.8 812.5,133.8 813.1,133.8 813.7,133.8 814.2,133.8 814.8,133.8 815.4,133.8 816.0,133.8 816.5,133.8 817.1,133.8 817.7,133.8 818.3,133.8 818.8,133.8 819.4,133.8 820.0,133.8 820.6,133.8 821.2,133.8 821.7,133.8 822.3,133.8 822.9,113.2 823.5,113.2 824.0,113.2 824.6,113.2 825.2,113.2 825.8,113.2 826.3,113.2 826.9,113.2 827.5,113.2 828.1,113.2 828.7,113.2 829.2,113.2 829.8,113.2 830.4,113.2 831.0,113.2 831.5,113.2 832.1,113.2 832.7,113.2 833.3,113.2 833.8,113.2 834.4,113.2 835.0,113.2 835.6,113.2 836.2,113.2 836.7,113.2 837.3,113.2 837.9,113.2 838.5,113.2 839.0,113.2 839.6,113.2 840.2,113.2 840.8,113.2 841.3,113.2 841.9,113.2 842.5,113.2 843.1,113.2 843.7,113.2 844.2,113.2 844.8,113.2 845.4,113.2 846.0,113.2 846.5,113.2 847.1,113.2 847.7,113.2 848.3,113.2 848.8,113.2 849.4,113.2 850.0,113.2 850.6,113.2 851.2,113.2 851.7,113.2 852.3,113.2 852.9,113.2 853.5,113.2 854.0,113.2 854.6,113.2 855.2,113.2 855.8,113.2 856.3,113.2 856.9,113.2 857.5,113.2 858.1,113.2 858.7,113.2 859.2,113.2 859.8,113.2 860.4,113.2 861.0,113.2 861.5,113.2 862.1,113.2 862.7,113.2 863.3,113.2 863.8,113.2 864.4,113.2 865.0,113.2 865.6,113.2 866.2,113.2 866.7,113.2 867.3,113.2 867.9,113.2 868.5,113.2 869.0,113.2 869.6,113.2 870.2,113.2 870.8,113.2 871.3,113.2 871.9,113.2 872.5,113.2 873.1,113.2 873.7,113.2 874.2,113.2 874.8,113.2 875.4,113.2 876.0,113.2 876.5,113.2 877.1,113.2 877.7,113.2 878.3,113.2 878.8,113.2 879.4,113.2 880.0,113.2" fill="none" stroke="#1f9d55" stroke-width="2"/>
  <text x="74.0" y="328" text-anchor="middle" font-size="11" fill="#5b6270">2018-03-05</text><text x="275.4" y="328" text-anchor="middle" font-size="11" fill="#5b6270">2019-02-17</text><text x="477.3" y="328" text-anchor="middle" font-size="11" fill="#5b6270">2020-02-02</text><text x="678.6" y="328" text-anchor="middle" font-size="11" fill="#5b6270">2021-01-16</text><text x="880.0" y="328" text-anchor="middle" font-size="11" fill="#5b6270">2021-12-31</text>
  <text x="74" y="16" font-size="12" fill="#2b3040">cumulative realised profit (blue) vs cumulative withdrawn (green), XBt</text>
</svg>